{"title":"Purgatory  (Western 1999)  Excellent quality in a thimble!","uid":9320228,"size":523810419,"categoryP":"video","categoryS":"movies","magnet":"?xt=urn:btih:dd0858a82df4046d3c007ad8e02e14321c060eea&amp;dn=Purgatory++%28Western+1999%29++Excellent+quality+in+a+thimble%21&amp;tr=udp%3A%2F%2Ftracker.openbittorrent.com%3A80&amp;tr=udp%3A%2F%2Fopen.demonii.com%3A1337&amp;tr=udp%3A%2F%2Ftracker.coppersurfer.tk%3A6969&amp;tr=udp%3A%2F%2Fexodus.desync.com%3A6969","seeders":1,"leechers":0,"uploader":"BurtonW","files":7,"time":1386537666,"description":" &lt;a href=&quot;http://www.imdb.com/title/tt0158131/?ref_=nv_sr_1&quot; rel=&quot;nofollow&quot; target=&quot;_NEW&quot;&gt;http://www.imdb.com/title/tt0158131/?ref_=nv_sr_1&lt;/a&gt;\n\n\nExcellent quality film and my personal favorite western.\n\n\nNo subtitles!\n\n\nStoryline:\n\nAn outlaw band flees a posse and rides into Refuge, a small town where no one carries a gun, drinks, or swears. The town is actually Purgatory, and the peaceful inhabitants are all famous dead outlaws and criminals such as Doc Holiday and Wild Bill Hickok who must redeem themselves before gaining admittance to Heaven...or screw up and go to Hell. The residents must either defend themselves against the outlaws and risk eternal damnation... or die a second time.\n\n\nTechnical info:\n\n\nGeneral:\n\nComplete name                  : Purgatory  (Western 1999)  Sam Shepard, Randy Quaid &amp; Eric Roberts.mp4\nFormat                         : MPEG-4\nFormat profile                 : Base Media / Version 2\nCodec ID                       : mp42\nFile size                      : 499 MiB\nDuration                       : 1h 34mn\nOverall bit rate mode          : Variable\nOverall bit rate               : 739 Kbps\nEncoded date                   : UTC 2013-09-02 21:28:35\nTagged date                    : UTC 2013-09-02 22:40:29\n\n\nVideo:\n\nID                             : 1\nFormat                         : AVC\nFormat/Info                    : Advanced Video Codec\nFormat profile                 : &lt;a class=&quot;__cf_email__&quot; href=&quot;/cdn-cgi/l/email-protection&quot; data-cfemail=&quot;135e727a7d535f273d23&quot;&gt;[email&amp;#160;protected]&lt;/a&gt;&lt;script data-cfhash='f9e31' type=&quot;text/javascript&quot;&gt;\n/* &lt;![CDATA[ */!function(){try{var t=&quot;currentScript&quot;in document?document.currentScript:function(){for(var t=document.getElementsByTagName(&quot;script&quot;),e=t.length;e--;)if(t[e].getAttribute(&quot;data-cfhash&quot;))return t[e]}();if(t&amp;&amp;t.previousSibling){var e,r,n,i,c=t.previousSibling,a=c.getAttribute(&quot;data-cfemail&quot;);if(a){for(e=&quot;&quot;,r=parseInt(a.substr(0,2),16),n=2;a.length-n;n+=2)i=parseInt(a.substr(n,2),16)^r,e+=String.fromCharCode(i);e=document.createTextNode(e),c.parentNode.replaceChild(e,c)}t.parentNode.removeChild(t);}}catch(u){}}()/* ]]&gt; */&lt;/script&gt;\nFormat settings, CABAC         : Yes\nFormat settings, ReFrames      : 4 frames\nCodec ID                       : avc1\nCodec ID/Info                  : Advanced Video Coding\nDuration                       : 1h 34mn\nBit rate mode                  : Variable\nBit rate                       : 576 Kbps\nWidth                          : 720 pixels\nHeight                         : 416 pixels\nDisplay aspect ratio           : 1.731\nFrame rate mode                : Variable\nFrame rate                     : 23.976 fps\nMinimum frame rate             : 23.974 fps\nMaximum frame rate             : 60.000 fps\nColor space                    : YUV\nChroma subsampling             : 4:2:0\nBit depth                      : 8 bits\nScan type                      : Progressive\nBits/(Pixel*Frame)             : 0.080\nStream size                    : 388 MiB (78%)\nWriting library                : x264 core 130 r2273 b3065e6\nEncoding settings              : Deleted\nEncoded date                   : UTC 2013-09-02 21:28:35\nTagged date                    : UTC 2013-09-02 22:40:29\nColor primaries                : BT.601 NTSC\nTransfer characteristics       : BT.709\nMatrix coefficients            : BT.601\n\nAudio:\n\nID                             : 2\nFormat                         : AAC\nFormat/Info                    : Advanced Audio Codec\nFormat profile                 : LC\nCodec ID                       : 40\nDuration                       : 1h 34mn\nBit rate mode                  : Variable\nBit rate                       : 160 Kbps\nMaximum bit rate               : 281 Kbps\nChannel(s)                     : 2 channels\nChannel positions              : Front: L R\nSampling rate                  : 48.0 KHz\nCompression mode               : Lossy\nDelay relative to video        : 83ms\nStream size                    : 108 MiB (22%)\nEncoded date                   : UTC 2013-09-02 21:28:35\nTagged date                    : UTC 2013-09-02 22:40:28\n\n","torrent":{"xt":"urn:btih:dd0858a82df4046d3c007ad8e02e14321c060eea","amp;dn":"Purgatory++%28Western+1999%29++Excellent+quality+in+a+thimble%21","amp;tr":["udp%3A%2F%2Ftracker.openbittorrent.com%3A80","udp%3A%2F%2Fopen.demonii.com%3A1337","udp%3A%2F%2Ftracker.coppersurfer.tk%3A6969","udp%3A%2F%2Fexodus.desync.com%3A6969"],"infoHash":"dd0858a82df4046d3c007ad8e02e14321c060eea","infoHashBuffer":{"type":"Buffer","data":[221,8,88,168,45,244,4,109,60,0,122,216,224,46,20,50,28,6,14,234]},"announce":[],"urlList":[]}}